<mxfile host="app.diagrams.net" modified="2023-06-04T21:25:07.497Z" agent="Mozilla/5.0 (Windows NT 10.0; Win64; x64) AppleWebKit/537.36 (KHTML, like Gecko) Chrome/113.0.0.0 Safari/537.36 Edg/113.0.1774.57" etag="hQjl2LmLtvFyGt_fOp2z" version="21.3.6" type="github">
  <diagram name="PÃ¡gina-1" id="0C5V6CCvzbcogAtozVMo">
    <mxGraphModel dx="825" dy="444" grid="1" gridSize="10" guides="1" tooltips="1" connect="1" arrows="1" fold="1" page="1" pageScale="1" pageWidth="827" pageHeight="1169" math="0" shadow="0">
      <root>
        <mxCell id="0" />
        <mxCell id="1" parent="0" />
        <mxCell id="vNIl_TfS7yqQCmFnllw4-10" value="" style="edgeStyle=orthogonalEdgeStyle;rounded=0;orthogonalLoop=1;jettySize=auto;html=1;" edge="1" parent="1" source="vNIl_TfS7yqQCmFnllw4-1" target="vNIl_TfS7yqQCmFnllw4-9">
          <mxGeometry relative="1" as="geometry" />
        </mxCell>
        <mxCell id="vNIl_TfS7yqQCmFnllw4-1" value="Inserir&amp;nbsp; valores dos itens consumidos da mesa e o NUM de clientes" style="rounded=0;whiteSpace=wrap;html=1;" vertex="1" parent="1">
          <mxGeometry x="354" y="20" width="120" height="60" as="geometry" />
        </mxCell>
        <mxCell id="vNIl_TfS7yqQCmFnllw4-13" value="" style="edgeStyle=orthogonalEdgeStyle;rounded=0;orthogonalLoop=1;jettySize=auto;html=1;" edge="1" parent="1" source="vNIl_TfS7yqQCmFnllw4-5" target="vNIl_TfS7yqQCmFnllw4-12">
          <mxGeometry relative="1" as="geometry" />
        </mxCell>
        <mxCell id="vNIl_TfS7yqQCmFnllw4-5" value="Exibir&amp;nbsp; a soma como RESULT" style="rounded=1;whiteSpace=wrap;html=1;" vertex="1" parent="1">
          <mxGeometry x="354" y="260" width="120" height="60" as="geometry" />
        </mxCell>
        <mxCell id="vNIl_TfS7yqQCmFnllw4-16" value="" style="edgeStyle=orthogonalEdgeStyle;rounded=0;orthogonalLoop=1;jettySize=auto;html=1;" edge="1" parent="1" source="vNIl_TfS7yqQCmFnllw4-7" target="vNIl_TfS7yqQCmFnllw4-15">
          <mxGeometry relative="1" as="geometry" />
        </mxCell>
        <mxCell id="vNIl_TfS7yqQCmFnllw4-7" value="Exibir o produto (consumo + 10%)" style="rounded=1;whiteSpace=wrap;html=1;" vertex="1" parent="1">
          <mxGeometry x="354" y="490" width="120" height="60" as="geometry" />
        </mxCell>
        <mxCell id="vNIl_TfS7yqQCmFnllw4-11" value="" style="edgeStyle=orthogonalEdgeStyle;rounded=0;orthogonalLoop=1;jettySize=auto;html=1;" edge="1" parent="1" source="vNIl_TfS7yqQCmFnllw4-9" target="vNIl_TfS7yqQCmFnllw4-5">
          <mxGeometry relative="1" as="geometry" />
        </mxCell>
        <mxCell id="vNIl_TfS7yqQCmFnllw4-9" value="&#xa;&lt;span style=&quot;color: rgb(0, 0, 0); font-family: Helvetica; font-size: 12px; font-style: normal; font-variant-ligatures: normal; font-variant-caps: normal; font-weight: 400; letter-spacing: normal; orphans: 2; text-align: center; text-indent: 0px; text-transform: none; widows: 2; word-spacing: 0px; -webkit-text-stroke-width: 0px; background-color: rgb(251, 251, 251); text-decoration-thickness: initial; text-decoration-style: initial; text-decoration-color: initial; float: none; display: inline !important;&quot;&gt;Somar os valores dos itens&lt;/span&gt;&#xa;&#xa;" style="ellipse;whiteSpace=wrap;html=1;" vertex="1" parent="1">
          <mxGeometry x="344" y="120" width="140" height="90" as="geometry" />
        </mxCell>
        <mxCell id="vNIl_TfS7yqQCmFnllw4-14" value="" style="edgeStyle=orthogonalEdgeStyle;rounded=0;orthogonalLoop=1;jettySize=auto;html=1;" edge="1" parent="1" source="vNIl_TfS7yqQCmFnllw4-12" target="vNIl_TfS7yqQCmFnllw4-7">
          <mxGeometry relative="1" as="geometry" />
        </mxCell>
        <mxCell id="vNIl_TfS7yqQCmFnllw4-12" value="Multiplicar RESULT por 0,10" style="ellipse;whiteSpace=wrap;html=1;" vertex="1" parent="1">
          <mxGeometry x="354" y="370" width="120" height="80" as="geometry" />
        </mxCell>
        <mxCell id="vNIl_TfS7yqQCmFnllw4-18" value="" style="edgeStyle=orthogonalEdgeStyle;rounded=0;orthogonalLoop=1;jettySize=auto;html=1;" edge="1" parent="1" source="vNIl_TfS7yqQCmFnllw4-15" target="vNIl_TfS7yqQCmFnllw4-17">
          <mxGeometry relative="1" as="geometry" />
        </mxCell>
        <mxCell id="vNIl_TfS7yqQCmFnllw4-15" value="Dividir o produto pelo NUM de clientes da mesa." style="ellipse;whiteSpace=wrap;html=1;" vertex="1" parent="1">
          <mxGeometry x="347" y="610" width="134" height="80" as="geometry" />
        </mxCell>
        <mxCell id="vNIl_TfS7yqQCmFnllw4-17" value="Exibir o valor a ser pago por cada cliente." style="rounded=0;whiteSpace=wrap;html=1;" vertex="1" parent="1">
          <mxGeometry x="354" y="740" width="120" height="60" as="geometry" />
        </mxCell>
      </root>
    </mxGraphModel>
  </diagram>
</mxfile>
